<svg xmlns="http://www.w3.org/2000/svg" viewBox="0 0 256 256" role="img" aria-label="Foundry mark square mini">
  <defs>
    <linearGradient id="bg" x1="0" y1="0" x2="1" y2="1">
      <stop offset="0%" stop-color="#cf573c"/>
      <stop offset="100%" stop-color="#752438"/>
    </linearGradient>
    <linearGradient id="gear" x1="0.5" y1="0" x2="0.5" y2="1">
      <stop offset="0%" stop-color="#577277"/>
      <stop offset="100%" stop-color="#394a50"/>
    </linearGradient>
  </defs>
  <rect x="0" y="0" width="256" height="256" fill="url(#bg)"/>
  <g transform="translate(128 128) scale(0.57375) translate(-128 -128)">
    <!-- 8-tooth unified gear silhouette (single continuous shape) -->
    <path fill="url(#gear)" fill-rule="evenodd" clip-rule="evenodd" d="
      M 199.78,110.02 A 140.00,140.00 0 0 1 235.19,114.78 A 108.00,108.00 0 0 1 235.19,141.22 A 140.00,140.00 0 0 1 199.78,145.98 A 74.00,74.00 0 0 1 191.47,166.04 A 140.00,140.00 0 0 1 213.14,194.45 A 108.00,108.00 0 0 1 194.45,213.14 A 140.00,140.00 0 0 1 166.04,191.47 A 74.00,74.00 0 0 1 145.98,199.78 A 140.00,140.00 0 0 1 141.22,235.19 A 108.00,108.00 0 0 1 114.78,235.19 A 140.00,140.00 0 0 1 110.02,199.78 A 74.00,74.00 0 0 1 89.96,191.47 A 140.00,140.00 0 0 1 61.55,213.14 A 108.00,108.00 0 0 1 42.86,194.45 A 140.00,140.00 0 0 1 64.53,166.04 A 74.00,74.00 0 0 1 56.22,145.98 A 140.00,140.00 0 0 1 20.81,141.22 A 108.00,108.00 0 0 1 20.81,114.78 A 140.00,140.00 0 0 1 56.22,110.02 A 74.00,74.00 0 0 1 64.53,89.96 A 140.00,140.00 0 0 1 42.86,61.55 A 108.00,108.00 0 0 1 61.55,42.86 A 140.00,140.00 0 0 1 89.96,64.53 A 74.00,74.00 0 0 1 110.02,56.22 A 140.00,140.00 0 0 1 114.78,20.81 A 108.00,108.00 0 0 1 141.22,20.81 A 140.00,140.00 0 0 1 145.98,56.22 A 74.00,74.00 0 0 1 166.04,64.53 A 140.00,140.00 0 0 1 194.45,42.86 A 108.00,108.00 0 0 1 213.14,61.55 A 140.00,140.00 0 0 1 191.47,89.96 A 74.00,74.00 0 0 1 199.78,110.02 Z
      M 160.00,128.00 A 32.00,32.00 0 1 1 96.00,128.00 A 32.00,32.00 0 1 1 160.00,128.00 Z
    "/>
    <path fill="none" stroke="#e7d5b3" stroke-width="6" stroke-linejoin="round" d="
      M 199.78,110.02 A 140.00,140.00 0 0 1 235.19,114.78 A 108.00,108.00 0 0 1 235.19,141.22 A 140.00,140.00 0 0 1 199.78,145.98 A 74.00,74.00 0 0 1 191.47,166.04 A 140.00,140.00 0 0 1 213.14,194.45 A 108.00,108.00 0 0 1 194.45,213.14 A 140.00,140.00 0 0 1 166.04,191.47 A 74.00,74.00 0 0 1 145.98,199.78 A 140.00,140.00 0 0 1 141.22,235.19 A 108.00,108.00 0 0 1 114.78,235.19 A 140.00,140.00 0 0 1 110.02,199.78 A 74.00,74.00 0 0 1 89.96,191.47 A 140.00,140.00 0 0 1 61.55,213.14 A 108.00,108.00 0 0 1 42.86,194.45 A 140.00,140.00 0 0 1 64.53,166.04 A 74.00,74.00 0 0 1 56.22,145.98 A 140.00,140.00 0 0 1 20.81,141.22 A 108.00,108.00 0 0 1 20.81,114.78 A 140.00,140.00 0 0 1 56.22,110.02 A 74.00,74.00 0 0 1 64.53,89.96 A 140.00,140.00 0 0 1 42.86,61.55 A 108.00,108.00 0 0 1 61.55,42.86 A 140.00,140.00 0 0 1 89.96,64.53 A 74.00,74.00 0 0 1 110.02,56.22 A 140.00,140.00 0 0 1 114.78,20.81 A 108.00,108.00 0 0 1 141.22,20.81 A 140.00,140.00 0 0 1 145.98,56.22 A 74.00,74.00 0 0 1 166.04,64.53 A 140.00,140.00 0 0 1 194.45,42.86 A 108.00,108.00 0 0 1 213.14,61.55 A 140.00,140.00 0 0 1 191.47,89.96 A 74.00,74.00 0 0 1 199.78,110.02 Z
    "/>
    <circle cx="128" cy="128" r="32" fill="none" stroke="#e7d5b3" stroke-width="6"/>
  </g>
</svg>
